<svg version="1.0" xmlns="http://www.w3.org/2000/svg" width="933.333" height="933.333" viewBox="0 0 700 700"><path d="M500.6 15.8c-.2.4-1.7.7-3.3.6-1.5 0-3.2.5-3.8 1.2-.5.6-4.4 2-8.5 2.9-4.1.9-10.1 2.5-13.2 3.5-5.4 1.8-22.7 9.7-23.8 11-.3.3-2.3 1.7-4.5 3.1-5.5 3.7-12.2 10.6-15.2 15.6-1.4 2.4-2.7 4.3-3 4.3-.3 0-3.1-.7-6.2-1.5-6.3-1.6-15.8-1.4-21.1.5-8.5 3.1-17.1 10.5-21.3 18.5-.9 1.6-2 3.5-2.5 4.2-.4.7-7.2 2.1-15.3 3.3-8 1.1-17.2 2.7-20.5 3.6-3.2.9-6.3 1.7-6.9 1.8-1.3.4-3.7 1.2-10.5 3.8-14.6 5.5-38 21.3-53.7 36.2-17.8 16.9-25.7 33.2-24.8 51.2.4 6.8.3 7.1-2.4 8.7-6.8 4-23.3 24.6-30.7 38.2-8.8 16.5-11 31.7-5.9 42 1.4 3 3.7 6.3 4.9 7.2l2.2 1.7-2.2 4.1c-4.2 7.5-5.6 16.4-5.9 37.2-.2 10.5-.6 19.6-.9 20.2-.4.6-4.4 2.9-8.9 5-14.7 7-20.7 13-24.7 24.6-5.6 16.4.8 34.7 14.7 41.8 8.8 4.6 26.3 6.3 38.8 3.8 2.7-.5 5.2-.8 5.4-.6.6.7 1.2 5.7 1.5 13.2.1 3.9.7 7.7 1.3 8.5.5.7 1.3 2.9 1.6 4.8 1.6 9.2 7.3 33.3 8.7 37 .6 1.4 1.2 3.8 1.4 5.5.6 4 8.6 29.7 17.6 56.5 3.9 11.8 10.5 32.1 14.5 45 8.1 26.2 12.5 38.4 18 51 6.1 13.7 15.8 30.8 18.4 32.4.6.4 1.1 2 1.1 3.6 0 3.5 2.6 6.3 5.3 5.6 1.2-.3 3.4.5 5.6 2 3.2 2.2 9.4 4.5 16.2 6 4.9 1.1 18 .5 24.6-1.1 17.5-4.3 31.6-15 42.5-32.1 2.3-3.7 7.6-14.4 12.8-25.9 2.4-5.3 5.7-14.5 11.2-30.9 3.2-9.9 6.3-18.5 6.8-19.1.5-.6 1.2-3.1 1.4-5.6.3-2.4 1.4-8 2.6-12.4 1.1-4.4 2.2-8.7 2.4-9.5.3-.8 2.8-10.5 5.6-21.5 2.9-11 5.3-20.7 5.5-21.5.2-.8.8-3.5 1.5-6s1.4-5.2 1.6-6c.2-.8.8-3.5 1.5-6 .6-2.5 1.2-5.2 1.4-6 2.6-11.3 8.8-32.7 13.1-44.8 3-8.4 6-17.5 6.6-20.3 1.2-5 1.2-5.1 4.2-4.4 22.6 4.7 39.8-1.9 47.3-18.2 7.9-17.1 1.8-32.9-17.3-45.3-5.7-3.8-6.3-4.5-5.9-6.9.6-3.2.7-16.7.1-20.1-.3-1.4-.7-4.6-1-7.1-.8-5.8-4.2-16.4-6.7-20.7-2.4-4.2-2.4-4.9.1-5.7 3.5-1.1 9.9-8.6 10.7-12.4.9-4.4.6-9.4-.8-14.1-1.4-4.5-8.2-17-12.7-23.5-10.4-14.7-11.2-19.8-5.3-32.6 5.1-11.1 6.5-17.5 6.5-28.9.2-32.8-12.9-57.7-38.5-73.6-5.3-3.3-5.5-3.6-5.8-8.2-.7-15.2-9.4-30.1-20.2-34.9l-3.8-1.6 2.2-3.1c5-7.3 13.4-14.2 24.7-20.2 5-2.7 16-7.5 18.5-8.1.6-.1 3.5-.9 6.5-1.8 3-.8 8.2-1.8 11.5-2.1 3.3-.3 6.6-.7 7.4-1 .7-.2 1.9 0 2.6.6 1 .8 2 .4 4.1-1.3 3-2.6 2.5-5.2-.7-4.4-1 .3-2.2.1-2.5-.4-.6-1.1-3.1-1.2-3.8-.1zm-93.1 59.5c-.4.9-2.1 1.9-3.8 2.3-4.2.9-8.3 4.1-9.8 7.5-1.2 3.2-4.3 3.9-5.3 1.3-1.6-4.3 4.7-11 13.3-14 4.1-1.4 6.7-.1 5.6 2.9zM283.4 328.4c.8 3.3-.7 6.9-4 9.5-6.7 5.3-13.6 3.2-15-4.6-.4-2.2 4-7.7 7.5-9.5 3.2-1.6 3.6-1.6 7.1.2 2.3 1.2 4 2.9 4.4 4.4zm142.9-2.1c2.6 2.9 2.1 6.3-1.5 10.2-4.4 4.8-9.8 5.8-13.3 2.5-4.7-4.4-2.2-12.6 4.9-15.5 3.4-1.5 6.9-.5 9.9 2.8z"/></svg>