<?xml version="1.0" standalone="no"?>
<!DOCTYPE svg PUBLIC "-//W3C//DTD SVG 20010904//EN"
 "http://www.w3.org/TR/2001/REC-SVG-20010904/DTD/svg10.dtd">
<svg version="1.0" xmlns="http://www.w3.org/2000/svg"
 width="700.000000pt" height="700.000000pt" viewBox="0 0 700.000000 700.000000"
 preserveAspectRatio="xMidYMid meet">
<metadata>
Created by potrace 1.14, written by Peter Selinger 2001-2017
</metadata>
<g transform="translate(0.000000,700.000000) scale(0.100000,-0.100000)"
fill="#000000" stroke="none">
<path d="M5006 6842 c-2 -4 -17 -7 -33 -6 -15 0 -32 -5 -38 -12 -5 -6 -44 -20
-85 -29 -41 -9 -101 -25 -132 -35 -54 -18 -227 -97 -238 -110 -3 -3 -23 -17
-45 -31 -55 -37 -122 -106 -152 -156 -14 -24 -27 -43 -30 -43 -3 0 -31 7 -62
15 -63 16 -158 14 -211 -5 -85 -31 -171 -105 -213 -185 -9 -16 -20 -35 -25
-42 -4 -7 -72 -21 -153 -33 -80 -11 -172 -27 -205 -36 -32 -9 -63 -17 -69 -18
-13 -4 -37 -12 -105 -38 -146 -55 -380 -213 -537 -362 -178 -169 -257 -332
-248 -512 4 -68 3 -71 -24 -87 -68 -40 -233 -246 -307 -382 -88 -165 -110
-317 -59 -420 14 -30 37 -63 49 -72 l22 -17 -22 -41 c-42 -75 -56 -164 -59
-372 -2 -105 -6 -196 -9 -202 -4 -6 -44 -29 -89 -50 -147 -70 -207 -130 -247
-246 -56 -164 8 -347 147 -418 88 -46 263 -63 388 -38 27 5 52 8 54 6 6 -7 12
-57 15 -132 1 -39 7 -77 13 -85 5 -7 13 -29 16 -48 16 -92 73 -333 87 -370 6
-14 12 -38 14 -55 6 -40 86 -297 176 -565 39 -118 105 -321 145 -450 81 -262
125 -384 180 -510 61 -137 158 -308 184 -324 6 -4 11 -20 11 -36 0 -35 26 -63
53 -56 12 3 34 -5 56 -20 32 -22 94 -45 162 -60 49 -11 180 -5 246 11 175 43
316 150 425 321 23 37 76 144 128 259 24 53 57 145 112 309 32 99 63 185 68
191 5 6 12 31 14 56 3 24 14 80 26 124 11 44 22 87 24 95 3 8 28 105 56 215
29 110 53 207 55 215 2 8 8 35 15 60 7 25 14 52 16 60 2 8 8 35 15 60 6 25 12
52 14 60 26 113 88 327 131 448 30 84 60 175 66 203 12 50 12 51 42 44 226
-47 398 19 473 182 79 171 18 329 -173 453 -57 38 -63 45 -59 69 6 32 7 167 1
201 -3 14 -7 46 -10 71 -8 58 -42 164 -67 207 -24 42 -24 49 1 57 35 11 99 86
107 124 9 44 6 94 -8 141 -14 45 -82 170 -127 235 -104 147 -112 198 -53 326
51 111 65 175 65 289 2 328 -129 577 -385 736 -53 33 -55 36 -58 82 -7 152
-94 301 -202 349 l-38 16 22 31 c50 73 134 142 247 202 50 27 160 75 185 81 6
1 35 9 65 18 30 8 82 18 115 21 33 3 66 7 74 10 7 2 19 0 26 -6 10 -8 20 -4
41 13 30 26 25 52 -7 44 -10 -3 -22 -1 -25 4 -6 11 -31 12 -38 1z m-931 -595
c-4 -9 -21 -19 -38 -23 -42 -9 -83 -41 -98 -75 -12 -32 -43 -39 -53 -13 -16
43 47 110 133 140 41 14 67 1 56 -29z m-1241 -2531 c8 -33 -7 -69 -40 -95 -67
-53 -136 -32 -150 46 -4 22 40 77 75 95 32 16 36 16 71 -2 23 -12 40 -29 44
-44z m1429 21 c26 -29 21 -63 -15 -102 -44 -48 -98 -58 -133 -25 -47 44 -22
126 49 155 34 15 69 5 99 -28z"/>
</g>
</svg>
